# xmcd CD database file
#
# Track frame offsets:
#	150
#	13519
#	28945
#	46738
#	62912
#	83492
#	102299
#	115988
#	138187
#	160229
#	176603
#	197848
#	217185
#	232982
#	246757
#	263039
#	275703
#	295730
#	314563
#
# Disc length: 4412 seconds
#
# Revision: 1
# Processed by: cddbd v1.4PL0 Copyright (c) Steve Scherf et al.
# Submitted via: CDex 1.50beta10
#
DISCID=12113a13
DTITLE=Shania Twain - Hit Collection
DYEAR=2000
DGENRE=Country
TTITLE0=Come On Over
TTITLE1=Forget Me
TTITLE2=Man! I Feel Like a Woman!
TTITLE3=You're Still The One
TTITLE4=I'm Outta Here
TTITLE5=I Won't Leave You Lonely 
TTITLE6=What Made You Say That
TTITLE7=From This Moment On
TTITLE8=The Woman In Me (Needs The Man In You)
TTITLE9=Don't Be Stupid (You Know I Love You)
TTITLE10=If There Live After Love?
TTITLE11=If You Wanna Touch Her' Ask
TTITLE12=I'm Holding On To Love (To Save My Love)
TTITLE13=No One Needs To Know
TTITLE14=Love Gets My Every Time
TTITLE15=God Ain't Gonna Getcha For That
TTITLE16=Rock This Country!
TTITLE17=Any Man Of Mine
TTITLE18=That Don't Impress Me Much
EXTD=YEAR: 2000
EXTT0=
EXTT1=
EXTT2=
EXTT3=
EXTT4=
EXTT5=
EXTT6=
EXTT7=
EXTT8=
EXTT9=
EXTT10=
EXTT11=
EXTT12=
EXTT13=
EXTT14=
EXTT15=
EXTT16=
EXTT17=
EXTT18=
PLAYORDER=
